<?xml version="1.0" encoding="UTF-8"?>
<svg width="291px" height="65px" viewBox="0 0 291 65" version="1.1" xmlns="http://www.w3.org/2000/svg" xmlns:xlink="http://www.w3.org/1999/xlink">
    <!-- Generator: Sketch 59.1 (86144) - https://sketch.com -->
    <title>CELS</title>
    <desc>Created with Sketch.</desc>
    <defs>
        <path d="M0.918705882,2.10624 C7.66769748,7.2192 11.4229916,3.46176 11.4229916,3.46176 C8.44653782,4.06848 6.80072269,2.81664 6.80072269,2.81664 C8.78757983,3.1488 11.0168067,2.49888 11.0168067,2.49888 C8.76171429,0.9264 6.84,0.42144 5.29381513,0.42144 C2.47734454,0.42144 0.918705882,2.10624 0.918705882,2.10624" id="path-1"></path>
        <radialGradient cx="180.656324%" cy="-202.248107%" fx="180.656324%" fy="-202.248107%" r="544.976455%" gradientTransform="translate(1.806563,-2.022481),scale(0.416117,1.000000),rotate(45.430619),translate(-1.806563,2.022481)" id="radialGradient-3">
            <stop stop-color="#E5432E" offset="0%"></stop>
            <stop stop-color="#F9C631" offset="100%"></stop>
        </radialGradient>
        <path d="M0.537428571,0.70272 C4.20363025,8.00064 9.04815126,6.3504 9.04815126,6.3504 C6.21635294,5.60736 5.32638655,3.82368 5.32638655,3.82368 C6.89843697,4.96032 9.10371429,5.34432 9.10371429,5.34432 C6.81605042,1.20672 3.99670588,0.44544 2.23210084,0.44544 C1.20610084,0.44544 0.537428571,0.70272 0.537428571,0.70272" id="path-4"></path>
        <radialGradient cx="237.146694%" cy="154.602141%" fx="237.146694%" fy="154.602141%" r="392.722434%" gradientTransform="translate(2.371467,1.546021),scale(0.708008,1.000000),rotate(45.430592),translate(-2.371467,-1.546021)" id="radialGradient-6">
            <stop stop-color="#E5432E" offset="0%"></stop>
            <stop stop-color="#F9C631" offset="100%"></stop>
        </radialGradient>
        <path d="M1.86423529,11.96832 C1.00492437,8.75808 2.25605042,6.8736 2.25605042,6.8736 C2.02421849,9.0672 2.87969748,11.46144 2.87969748,11.46144 C7.28929412,4.21632 2.64020168,0.39648 2.64020168,0.39648 C-2.47830252,8.112 1.86423529,11.96832 1.86423529,11.96832" id="path-7"></path>
        <radialGradient cx="33.4437446%" cy="172.700891%" fx="33.4437446%" fy="172.700891%" r="514.027594%" gradientTransform="translate(0.334437,1.727009),scale(1.000000,0.400471),rotate(45.430608),translate(-0.334437,-1.727009)" id="radialGradient-9">
            <stop stop-color="#E5432E" offset="0%"></stop>
            <stop stop-color="#F9C631" offset="100%"></stop>
        </radialGradient>
        <path d="M0.381277311,9.24864 C1.58642017,6.15168 3.70835294,5.37792 3.70835294,5.37792 C2.22539496,7.00992 1.50307563,9.44064 1.50307563,9.44064 C9.33458824,6.22176 7.84588235,0.38592 7.84588235,0.38592 C-0.836319328,3.56544 0.381277311,9.24864 0.381277311,9.24864" id="path-10"></path>
        <radialGradient cx="-170.248822%" cy="114.804486%" fx="-170.248822%" fy="114.804486%" r="311.995349%" gradientTransform="translate(-1.702488,1.148045),scale(1.000000,0.843315),rotate(45.430617),translate(1.702488,-1.148045)" id="radialGradient-12">
            <stop stop-color="#E5432E" offset="0%"></stop>
            <stop stop-color="#F9C631" offset="100%"></stop>
        </radialGradient>
        <path d="M0.829613445,1.06464 C3.26097479,1.02048 4.38277311,2.2368 4.38277311,2.2368 C2.86436975,1.6896 1.01546218,1.88352 1.01546218,1.88352 C5.39631933,6.2928 8.92265546,3.6384 8.92265546,3.6384 C6.5890084,1.10208 4.53796639,0.47712 3.08566387,0.47712 C1.67742857,0.47712 0.829613445,1.06464 0.829613445,1.06464" id="path-13"></path>
        <radialGradient cx="-119.074396%" cy="-221.781356%" fx="-119.074396%" fy="-221.781356%" r="553.119158%" gradientTransform="translate(-1.190744,-2.217814),scale(0.488495,1.000000),rotate(45.430620),translate(1.190744,2.217814)" id="radialGradient-15">
            <stop stop-color="#E5432E" offset="0%"></stop>
            <stop stop-color="#F9C631" offset="100%"></stop>
        </radialGradient>
        <linearGradient x1="804.352929%" y1="1318.20697%" x2="373.344484%" y2="427.895874%" id="linearGradient-16">
            <stop stop-color="#F9C631" offset="0%"></stop>
            <stop stop-color="#E5432E" offset="100%"></stop>
        </linearGradient>
        <linearGradient x1="1192.68846%" y1="106.208619%" x2="539.799929%" y2="66.7488476%" id="linearGradient-17">
            <stop stop-color="#F9C631" offset="0%"></stop>
            <stop stop-color="#E5432E" offset="100%"></stop>
        </linearGradient>
        <polygon id="path-18" points="11.8368403 0.14304 9.28668908 6.28032 7.83917647 10.14144 6.50757983 6.19392 4.38181513 0.14304 0.356369748 0.14304 5.94141176 13.92096 3.33378151 19.99872 7.13218487 19.99872 15.6630252 0.14304"></polygon>
        <linearGradient x1="571.686347%" y1="673.135441%" x2="231.272276%" y2="5.62811594%" id="linearGradient-20">
            <stop stop-color="#F9C631" offset="0%"></stop>
            <stop stop-color="#E5432E" offset="100%"></stop>
        </linearGradient>
        <linearGradient x1="865.134917%" y1="77.6181913%" x2="333.237932%" y2="48.0333791%" id="linearGradient-21">
            <stop stop-color="#F9C631" offset="0%"></stop>
            <stop stop-color="#E5432E" offset="100%"></stop>
        </linearGradient>
        <linearGradient x1="616.331997%" y1="1318.20697%" x2="185.35666%" y2="427.895874%" id="linearGradient-22">
            <stop stop-color="#F9C631" offset="0%"></stop>
            <stop stop-color="#E5432E" offset="100%"></stop>
        </linearGradient>
        <linearGradient x1="907.875688%" y1="106.208619%" x2="255.037308%" y2="66.7488476%" id="linearGradient-23">
            <stop stop-color="#F9C631" offset="0%"></stop>
            <stop stop-color="#E5432E" offset="100%"></stop>
        </linearGradient>
        <linearGradient x1="342.904433%" y1="1331.44757%" x2="82.6890319%" y2="600.295794%" id="linearGradient-24">
            <stop stop-color="#F9C631" offset="0%"></stop>
            <stop stop-color="#E5432E" offset="100%"></stop>
        </linearGradient>
        <linearGradient x1="923.871902%" y1="106.79546%" x2="147.526781%" y2="74.3898413%" id="linearGradient-25">
            <stop stop-color="#F9C631" offset="0%"></stop>
            <stop stop-color="#E5432E" offset="100%"></stop>
        </linearGradient>
        <path d="M0.796084034,8.00832 C0.796084034,12.4944 3.65757983,15.47712 8.47623529,15.47712 C10.601042,15.47712 13.0132437,14.73696 14.4866218,13.20288 L12.2746387,11.01792 C11.4814286,11.84064 9.80591597,12.32256 8.53563025,12.32256 C6.09852101,12.32256 4.59352941,11.07456 4.36552941,9.3408 L15.2798319,9.3408 C15.8191765,3.57504 12.8992437,0.6768 8.22141176,0.6768 C3.68823529,0.6768 0.796084034,3.74592 0.796084034,8.00832 Z M8.33732773,3.74592 C10.3213109,3.74592 11.7381681,4.65312 11.9652101,6.47136 L4.42396639,6.47136 C4.93361345,4.65312 6.46255462,3.74592 8.33732773,3.74592 Z" id="path-26"></path>
        <linearGradient x1="564.822522%" y1="1336.29381%" x2="5.17431971%" y2="440.785338%" id="linearGradient-28">
            <stop stop-color="#F9C631" offset="0%"></stop>
            <stop stop-color="#E5432E" offset="100%"></stop>
        </linearGradient>
        <linearGradient x1="564.822522%" y1="107.010252%" x2="5.17431971%" y2="67.3201258%" id="linearGradient-29">
            <stop stop-color="#F9C631" offset="0%"></stop>
            <stop stop-color="#E5432E" offset="100%"></stop>
        </linearGradient>
        <path d="M3.81947899,2.78016 L3.56465546,1.07616 L0.362117647,1.07616 L0.362117647,15.10656 L3.81947899,15.10656 L3.81947899,7.608 C3.81947899,5.76192 4.9249916,4.08768 6.79401681,4.08768 C8.69561345,4.08768 9.65838655,5.76192 9.65838655,7.608 L9.65838655,15.10656 L13.1186218,15.10656 L13.1186218,7.608 C13.1186218,5.76192 14.2768235,4.14336 16.1496807,4.14336 C18.0196639,4.14336 18.7860504,5.70528 18.7860504,7.55136 L18.7860504,15.10656 L22.2434118,15.10656 L22.2434118,7.55136 C22.2434118,3.34848 20.2862521,0.90432 16.3202017,0.90432 C14.5048235,0.90432 12.8887059,1.47456 11.6414118,3.46176 C10.8462857,1.5312 9.17556303,0.8496 7.50292437,0.8496 C6.17132773,0.8496 4.55521008,1.36032 3.81947899,2.78016 Z" id="path-30"></path>
        <linearGradient x1="285.562178%" y1="703.775253%" x2="-86.5165417%" y2="253.893727%" id="linearGradient-32">
            <stop stop-color="#F9C631" offset="0%"></stop>
            <stop stop-color="#E5432E" offset="100%"></stop>
        </linearGradient>
        <linearGradient x1="285.562178%" y1="109.876577%" x2="-86.5165417%" y2="68.6737849%" id="linearGradient-33">
            <stop stop-color="#F9C631" offset="0%"></stop>
            <stop stop-color="#E5432E" offset="100%"></stop>
        </linearGradient>
        <path d="M0.511563025,5.08128 C0.511563025,8.2608 3.6594958,9.22848 6.29490756,9.4272 C8.28176471,9.54048 9.07305882,9.93696 9.07305882,10.90272 C9.07305882,11.92512 7.85546218,12.60672 6.54973109,12.57888 C4.99205042,12.55104 2.72258824,11.72832 1.7329916,10.62048 L0.0306554622,13.0896 C2.07211765,15.22176 4.28314286,15.5904 6.4922521,15.5904 C10.4908739,15.5904 12.5007227,13.46016 12.5007227,10.99008 C12.5007227,7.2672 9.15831933,6.66912 6.5209916,6.50208 C4.73531092,6.38688 3.91240336,5.87712 3.91240336,4.96704 C3.91240336,4.08768 4.82344538,3.57504 6.46734454,3.57504 C7.79989916,3.57504 8.92936134,3.888 9.92278992,4.824 L11.8521681,2.55264 C10.2360504,1.1328 8.59310924,0.70368 6.40890756,0.70368 C3.86067227,0.70368 0.511563025,1.84224 0.511563025,5.08128 Z" id="path-34"></path>
        <linearGradient x1="202.463063%" y1="1318.20697%" x2="-228.545382%" y2="427.895874%" id="linearGradient-36">
            <stop stop-color="#F9C631" offset="0%"></stop>
            <stop stop-color="#E5432E" offset="100%"></stop>
        </linearGradient>
        <linearGradient x1="280.949966%" y1="106.208619%" x2="-371.938567%" y2="66.7488476%" id="linearGradient-37">
            <stop stop-color="#F9C631" offset="0%"></stop>
            <stop stop-color="#E5432E" offset="100%"></stop>
        </linearGradient>
    </defs>
    <g id="Page-1" stroke="none" stroke-width="1" fill="none" fill-rule="evenodd">
        <g id="CELS" transform="translate(2.000000, 2.000000)">
            <polygon id="Fill-1" fill="#1F325D" fill-rule="nonzero" points="0.866783193 0.991008 0.866783193 59.968608 28.0744639 59.968608 28.0744639 56.413728 4.41611092 56.413728 4.41611092 4.546848 56.1711529 4.546848 56.1711529 56.413728 34.5274387 56.413728 34.5274387 48.004128 41.9920437 36.961248 39.0606151 34.968288 30.9809849 46.912608 30.9809849 59.968608 59.7204807 59.968608 59.7204807 0.991008"></polygon>
            <polygon id="Fill-2" fill="#1F325D" fill-rule="nonzero" points="20.7196437 35.981856 29.5225513 44.154336 31.931879 41.546016 23.1289714 33.371616"></polygon>
            <polygon id="Fill-3" fill="#1F325D" fill-rule="nonzero" points="40.1576017 30.041376 37.345921 27.876576 30.3641395 36.673056 33.1786941 38.839776"></polygon>
            <g id="Group-10" transform="translate(6.705882, 13.203840)" fill="#E5432E" fill-rule="nonzero">
                <path d="M27.487795,14.456256 C27.487795,14.456256 35.8203328,14.091456 37.0896605,0.833856 C37.0896605,0.833856 28.4467361,0.878016 26.8133748,12.962496 C26.8133748,12.962496 29.935442,11.070336 31.6578958,8.410176 C31.6578958,8.410176 31.3522992,11.649216 27.487795,14.456256" id="Fill-4"></path>
                <path d="M23.1371143,17.047968 C23.1371143,17.047968 14.8074504,17.407968 12.4000387,4.312608 C12.4000387,4.312608 21.0132655,3.602208 23.6841227,15.501408 C23.6841227,15.501408 20.4126101,13.882848 18.4611983,11.384928 C18.4611983,11.384928 19.051316,14.586528 23.1371143,17.047968" id="Fill-6"></path>
                <path d="M13.3037042,22.846848 C13.3037042,22.846848 6.3324605,25.349568 0.854712605,14.867328 C0.854712605,14.867328 7.97635966,11.999808 13.3650151,21.390528 C13.3650151,21.390528 10.1643933,20.883648 7.85373782,19.276608 C7.85373782,19.276608 9.19012437,21.839808 13.3037042,22.846848" id="Fill-8"></path>
            </g>
            <g id="Group-13" transform="translate(10.537815, 38.163840)">
                <g id="Fill-11-Clipped">
                    <mask id="mask-2" fill="white">
                        <use xlink:href="#path-1"></use>
                    </mask>
                    <g id="path-1"></g>
                    <path d="M0.918705882,2.10624 C7.66769748,7.2192 11.4229916,3.46176 11.4229916,3.46176 C8.44653782,4.06848 6.80072269,2.81664 6.80072269,2.81664 C8.78757983,3.1488 11.0168067,2.49888 11.0168067,2.49888 C8.76171429,0.9264 6.84,0.42144 5.29381513,0.42144 C2.47734454,0.42144 0.918705882,2.10624 0.918705882,2.10624" id="Fill-11" fill="url(#radialGradient-3)" fill-rule="nonzero" mask="url(#mask-2)"></path>
                </g>
            </g>
            <g id="Group-16" transform="translate(9.579832, 19.923840)">
                <g id="Fill-14-Clipped">
                    <mask id="mask-5" fill="white">
                        <use xlink:href="#path-4"></use>
                    </mask>
                    <g id="path-4"></g>
                    <path d="M0.537428571,0.70272 C4.20363025,8.00064 9.04815126,6.3504 9.04815126,6.3504 C6.21635294,5.60736 5.32638655,3.82368 5.32638655,3.82368 C6.89843697,4.96032 9.10371429,5.34432 9.10371429,5.34432 C6.81605042,1.20672 3.99670588,0.44544 2.23210084,0.44544 C1.20610084,0.44544 0.537428571,0.70272 0.537428571,0.70272" id="Fill-14" fill="url(#radialGradient-6)" fill-rule="nonzero" mask="url(#mask-5)"></path>
                </g>
            </g>
            <g id="Group-19" transform="translate(28.739496, 9.363840)">
                <g id="Fill-17-Clipped">
                    <mask id="mask-8" fill="white">
                        <use xlink:href="#path-7"></use>
                    </mask>
                    <g id="path-7"></g>
                    <path d="M1.86423529,11.96832 C1.00492437,8.75808 2.25605042,6.8736 2.25605042,6.8736 C2.02421849,9.0672 2.87969748,11.46144 2.87969748,11.46144 C7.28929412,4.21632 2.64020168,0.39648 2.64020168,0.39648 C-2.47830252,8.112 1.86423529,11.96832 1.86423529,11.96832" id="Fill-17" fill="url(#radialGradient-9)" fill-rule="nonzero" mask="url(#mask-8)"></path>
                </g>
            </g>
            <g id="Group-22" transform="translate(43.109244, 18.963840)">
                <g id="Fill-20-Clipped">
                    <mask id="mask-11" fill="white">
                        <use xlink:href="#path-10"></use>
                    </mask>
                    <g id="path-10"></g>
                    <path d="M0.381277311,9.24864 C1.58642017,6.15168 3.70835294,5.37792 3.70835294,5.37792 C2.22539496,7.00992 1.50307563,9.44064 1.50307563,9.44064 C9.33458824,6.22176 7.84588235,0.38592 7.84588235,0.38592 C-0.836319328,3.56544 0.381277311,9.24864 0.381277311,9.24864" id="Fill-20" fill="url(#radialGradient-12)" fill-rule="nonzero" mask="url(#mask-11)"></path>
                </g>
            </g>
            <path d="M42.292084,35.228544 C42.292084,35.228544 47.6041008,37.862784 52.9314454,30.042624 C52.9314454,30.042624 47.536084,27.098304 42.3783025,34.066944 C42.3783025,34.066944 44.973479,33.957504 46.9584202,32.896704 C46.9584202,32.896704 45.6603529,34.808064 42.292084,35.228544" id="Fill-23" fill="#E5432E" fill-rule="nonzero"></path>
            <g id="Group-27" transform="translate(41.193277, 39.123840)">
                <g id="Fill-25-Clipped">
                    <mask id="mask-14" fill="white">
                        <use xlink:href="#path-13"></use>
                    </mask>
                    <g id="path-13"></g>
                    <path d="M0.829613445,1.06464 C3.26097479,1.02048 4.38277311,2.2368 4.38277311,2.2368 C2.86436975,1.6896 1.01546218,1.88352 1.01546218,1.88352 C5.39631933,6.2928 8.92265546,3.6384 8.92265546,3.6384 C6.5890084,1.10208 4.53796639,0.47712 3.08566387,0.47712 C1.67742857,0.47712 0.829613445,1.06464 0.829613445,1.06464" id="Fill-25" fill="url(#radialGradient-15)" fill-rule="nonzero" mask="url(#mask-14)"></path>
                </g>
            </g>
            <g id="Group-50" transform="translate(121.663866, 39.123840)" fill="url(#linearGradient-17)" fill-rule="nonzero">
                <path d="M0.818117647,5.08128 C0.818117647,8.2608 3.96509244,9.22848 6.6005042,9.4272 C8.58544538,9.54048 9.3767395,9.93696 9.3767395,10.90272 C9.3767395,11.92512 8.15722689,12.60672 6.85436975,12.57888 C5.29764706,12.55104 3.02818487,11.72832 2.03858824,10.62048 L0.336252101,13.0896 C2.37771429,15.22176 4.58778151,15.5904 6.79880672,15.5904 C10.7935966,15.5904 12.8063193,13.46016 12.8063193,10.99008 C12.8063193,7.2672 9.46295798,6.66912 6.82754622,6.50208 C5.04090756,6.38688 4.21895798,5.87712 4.21895798,4.96704 C4.21895798,4.08768 5.12808403,3.57504 6.77102521,3.57504 C8.10453782,3.57504 9.23591597,3.888 10.2283866,4.824 L12.1568067,2.55264 C10.5416471,1.1328 8.8977479,0.70368 6.71546218,0.70368 C4.16339496,0.70368 0.818117647,1.84224 0.818117647,5.08128" id="Fill-48"></path>
            </g>
            <g id="Group-55" transform="translate(137.949580, 40.083840)">
                <g id="Fill-53-Clipped">
                    <mask id="mask-19" fill="white">
                        <use xlink:href="#path-18"></use>
                    </mask>
                    <g id="path-17"></g>
                    <polygon id="Fill-53" fill="#414141" fill-rule="nonzero" mask="url(#mask-19)" points="-192.768252 64.71552 203.081899 64.71552 203.081899 -195.9984 -192.768252 -195.9984"></polygon>
                </g>
            </g>
            <g id="Group-58" transform="translate(137.949580, 40.083840)" fill="url(#linearGradient-21)" fill-rule="nonzero">
                <polygon id="Fill-56" points="11.8368403 0.14304 9.28668908 6.28032 7.83917647 10.14144 6.50757983 6.19392 4.38181513 0.14304 0.356369748 0.14304 5.94141176 13.92096 3.33378151 19.99872 7.13218487 19.99872 15.6630252 0.14304"></polygon>
            </g>
            <g id="Group-66" transform="translate(157.109244, 39.123840)" fill="url(#linearGradient-23)" fill-rule="nonzero">
                <path d="M0.877512605,5.08128 C0.877512605,8.2608 4.02640336,9.22848 6.66277311,9.4272 C8.64579832,9.54048 9.43709244,9.93696 9.43709244,10.90272 C9.43709244,11.92512 8.22045378,12.60672 6.91376471,12.57888 C5.35512605,12.55104 3.08757983,11.72832 2.09702521,10.62048 L0.398521008,13.0896 C2.43710924,15.22176 4.65005042,15.5904 6.86203361,15.5904 C10.8549076,15.5904 12.8695462,13.46016 12.8695462,10.99008 C12.8695462,7.2672 9.52235294,6.66912 6.88598319,6.50208 C5.1012605,6.38688 4.27739496,5.87712 4.27739496,4.96704 C4.27739496,4.08768 5.18747899,3.57504 6.8342521,3.57504 C8.16393277,3.57504 9.29531092,3.888 10.2916134,4.824 L12.2162017,2.55264 C10.601042,1.1328 8.95714286,0.70368 6.77485714,0.70368 C4.22470588,0.70368 0.877512605,1.84224 0.877512605,5.08128" id="Fill-64"></path>
            </g>
            <path d="M176.449966,36.649824 L176.449966,40.256544 L173.842336,40.256544 L173.842336,43.238304 L176.449966,43.238304 L176.449966,49.288224 C176.449966,52.782624 178.432034,54.516384 181.466924,54.401184 C182.514958,54.372384 183.339782,54.204384 184.330336,53.805024 L183.368521,50.852064 C182.858874,51.107424 182.234269,51.278304 181.69205,51.278304 C180.620067,51.278304 179.879546,50.622624 179.879546,49.288224 L179.879546,43.238304 L183.766084,43.238304 L183.766084,40.256544 L179.910202,40.256544 L179.910202,36.279264 L176.449966,36.649824 Z" id="Fill-67" fill="#414141" fill-rule="nonzero"></path>
            <g id="Group-74" transform="translate(173.394958, 36.243840)" fill="url(#linearGradient-25)" fill-rule="nonzero">
                <path d="M3.0550084,0.40608 L3.0550084,4.0128 L0.447378151,4.0128 L0.447378151,6.9936 L3.0550084,6.9936 L3.0550084,13.04448 C3.0550084,16.53888 5.03707563,18.27264 8.07196639,18.15744 C9.12,18.12864 9.94482353,17.95968 10.9344202,17.56032 L9.97356303,14.60832 C9.46487395,14.86368 8.83931092,15.03456 8.29613445,15.03456 C7.22510924,15.03456 6.48458824,14.37888 6.48458824,13.04448 L6.48458824,6.9936 L10.3711261,6.9936 L10.3711261,4.0128 L6.51620168,4.0128 L6.51620168,0.03552 L3.0550084,0.40608 Z" id="Fill-72"></path>
            </g>
            <g id="Group-79" transform="translate(187.764706, 39.123840)">
                <g id="Fill-77-Clipped">
                    <mask id="mask-27" fill="white">
                        <use xlink:href="#path-26"></use>
                    </mask>
                    <g id="path-22"></g>
                    <polygon id="Fill-77" fill="#414141" fill-rule="nonzero" mask="url(#mask-27)" points="-242.583378 65.67552 153.266773 65.67552 153.266773 -195.0384 -242.583378 -195.0384"></polygon>
                </g>
            </g>
            <g id="Group-82" transform="translate(187.764706, 39.123840)" fill="url(#linearGradient-29)" fill-rule="nonzero">
                <path d="M0.796084034,8.00832 C0.796084034,12.4944 3.65757983,15.47712 8.47623529,15.47712 C10.601042,15.47712 13.0132437,14.73696 14.4866218,13.20288 L12.2746387,11.01792 C11.4814286,11.84064 9.80591597,12.32256 8.53563025,12.32256 C6.09852101,12.32256 4.59352941,11.07456 4.36552941,9.3408 L15.2798319,9.3408 C15.8191765,3.57504 12.8992437,0.6768 8.22141176,0.6768 C3.68823529,0.6768 0.796084034,3.74592 0.796084034,8.00832 M8.33732773,3.74592 C10.3213109,3.74592 11.7381681,4.65312 11.9652101,6.47136 L4.42396639,6.47136 C4.93361345,4.65312 6.46255462,3.74592 8.33732773,3.74592" id="Fill-80"></path>
            </g>
            <g id="Group-87" transform="translate(207.882353, 39.123840)">
                <g id="Fill-85-Clipped">
                    <mask id="mask-31" fill="white">
                        <use xlink:href="#path-30"></use>
                    </mask>
                    <g id="path-25"></g>
                    <polygon id="Fill-85" fill="#414141" fill-rule="nonzero" mask="url(#mask-31)" points="-262.701025 65.67552 133.149126 65.67552 133.149126 -195.0384 -262.701025 -195.0384"></polygon>
                </g>
            </g>
            <g id="Group-90" transform="translate(207.882353, 39.123840)" fill="url(#linearGradient-33)" fill-rule="nonzero">
                <path d="M3.81947899,2.78016 L3.56465546,1.07616 L0.362117647,1.07616 L0.362117647,15.10656 L3.81947899,15.10656 L3.81947899,7.608 C3.81947899,5.76192 4.9249916,4.08768 6.79401681,4.08768 C8.69561345,4.08768 9.65838655,5.76192 9.65838655,7.608 L9.65838655,15.10656 L13.1186218,15.10656 L13.1186218,7.608 C13.1186218,5.76192 14.2768235,4.14336 16.1496807,4.14336 C18.0196639,4.14336 18.7860504,5.70528 18.7860504,7.55136 L18.7860504,15.10656 L22.2434118,15.10656 L22.2434118,7.55136 C22.2434118,3.34848 20.2862521,0.90432 16.3202017,0.90432 C14.5048235,0.90432 12.8887059,1.47456 11.6414118,3.46176 C10.8462857,1.5312 9.17556303,0.8496 7.50292437,0.8496 C6.17132773,0.8496 4.55521008,1.36032 3.81947899,2.78016" id="Fill-88"></path>
            </g>
            <g id="Group-95" transform="translate(235.663866, 39.123840)">
                <g id="Fill-93-Clipped">
                    <mask id="mask-35" fill="white">
                        <use xlink:href="#path-34"></use>
                    </mask>
                    <g id="path-28"></g>
                    <polygon id="Fill-93" fill="#414141" fill-rule="nonzero" mask="url(#mask-35)" points="-290.482538 65.67552 105.367613 65.67552 105.367613 -195.0384 -290.482538 -195.0384"></polygon>
                </g>
            </g>
            <g id="Group-98" transform="translate(235.663866, 39.123840)" fill="url(#linearGradient-37)" fill-rule="nonzero">
                <path d="M0.511563025,5.08128 C0.511563025,8.2608 3.6594958,9.22848 6.29490756,9.4272 C8.28176471,9.54048 9.07305882,9.93696 9.07305882,10.90272 C9.07305882,11.92512 7.85546218,12.60672 6.54973109,12.57888 C4.99205042,12.55104 2.72258824,11.72832 1.7329916,10.62048 L0.0306554622,13.0896 C2.07211765,15.22176 4.28314286,15.5904 6.4922521,15.5904 C10.4908739,15.5904 12.5007227,13.46016 12.5007227,10.99008 C12.5007227,7.2672 9.15831933,6.66912 6.5209916,6.50208 C4.73531092,6.38688 3.91240336,5.87712 3.91240336,4.96704 C3.91240336,4.08768 4.82344538,3.57504 6.46734454,3.57504 C7.79989916,3.57504 8.92936134,3.888 9.92278992,4.824 L11.8521681,2.55264 C10.2360504,1.1328 8.59310924,0.70368 6.40890756,0.70368 C3.86067227,0.70368 0.511563025,1.84224 0.511563025,5.08128" id="Fill-96"></path>
            </g>
            <path d="M86.2363059,16.389504 L87.0582555,17.213184 L90.1209277,14.242944 L89.2539529,13.392384 C86.972037,11.152704 83.9716336,9.917184 80.812205,9.917184 C73.7901882,9.917184 68.8843563,14.798784 68.8843563,21.785664 C68.8843563,28.661184 73.9022723,33.650304 80.812205,33.650304 C84.0176168,33.650304 87.0199361,32.411904 89.2635328,30.167424 L90.1008101,29.329344 L87.0276,26.256384 L86.1931966,27.093504 C82.1141042,31.187904 73.2814992,29.785344 73.2814992,21.785664 C73.2814992,13.676544 82.409163,12.557184 86.2363059,16.389504" id="Fill-99" fill="#1F325D" fill-rule="nonzero"></path>
            <path d="M95.8100067,19.752288 C96.6214185,16.302048 99.3516706,14.067168 102.925906,14.067168 C107.081637,14.067168 109.648074,16.121568 110.124192,19.752288 L95.8100067,19.752288 Z M102.925906,9.791328 C96.1989479,9.791328 91.1264269,14.947488 91.1264269,21.785568 C91.1264269,28.709088 96.0897378,33.734688 102.925906,33.734688 C106.959015,33.734688 110.769872,32.013408 112.874561,29.241888 L113.573889,28.324128 L110.245855,25.651488 L109.512998,26.623968 C108.309771,28.219488 105.600595,29.335008 102.925906,29.335008 C99.895805,29.335008 96.6951832,27.655968 95.8080908,23.943648 L114.3192,23.943648 L114.426494,22.875168 C114.810645,18.966048 113.899603,15.673248 111.800662,13.349088 C109.721839,11.054688 106.57199,9.791328 102.925906,9.791328 Z" id="Fill-101" fill="#1F325D" fill-rule="nonzero"></path>
            <polygon id="Fill-103" fill="#1F325D" fill-rule="nonzero" points="129.060454 33.43776 133.497832 33.43776 133.497832 1.39776 129.060454 1.39776"></polygon>
            <path d="M140.423092,19.817472 C141.237378,16.366272 143.964756,14.130432 147.541866,14.130432 C151.694723,14.130432 154.264034,16.185792 154.740151,19.817472 L140.423092,19.817472 Z M147.541866,9.856512 C140.814908,9.856512 135.741429,15.012672 135.741429,21.850752 C135.741429,28.774272 140.705697,33.797952 147.541866,33.797952 C151.569227,33.797952 155.383916,32.077632 157.489563,29.308032 L158.188891,28.389312 L154.862773,25.714752 L154.128958,26.686272 C152.922857,28.283712 150.216555,29.398272 147.541866,29.398272 C144.511765,29.398272 141.314017,27.720192 140.421176,24.007872 L158.932286,24.007872 L159.03958,22.940352 C159.421815,19.032192 158.514605,15.737472 156.416622,13.414272 C154.340672,11.118912 151.18795,9.856512 147.541866,9.856512 Z" id="Fill-105" fill="#1F325D" fill-rule="nonzero"></path>
            <path d="M178.360281,27.038976 C177.00665,28.567296 175.050449,29.377536 172.702432,29.377536 C168.435575,29.377536 165.336499,26.183616 165.336499,21.785856 C165.336499,17.412096 168.435575,14.238336 172.702432,14.238336 C177.884163,14.238336 180.245592,18.159936 180.245592,21.806976 C180.245592,23.810496 179.576919,25.669056 178.360281,27.038976 Z M180.065491,12.519936 C178.137071,10.827456 175.559138,9.875136 172.702432,9.875136 C165.974516,9.875136 160.901995,14.996736 160.901995,21.785856 C160.901995,28.623936 165.974516,33.780096 172.702432,33.780096 C175.541894,33.780096 178.067138,32.827776 180.065491,31.047936 L180.065491,33.439296 L184.499995,33.439296 L184.499995,10.130496 L180.065491,10.130496 L180.065491,12.519936 Z" id="Fill-106" fill="#1F325D" fill-rule="nonzero"></path>
            <path d="M197.921339,9.918816 L197.90218,9.918816 C195.618348,9.918816 193.595087,10.586976 192.07381,11.788896 L192.032617,10.130016 L187.754264,10.130016 L187.754264,33.437856 L192.188768,33.437856 L192.188768,20.045856 C192.188768,16.823136 194.70539,14.270496 197.90218,14.236896 C198.989491,14.236896 199.979087,14.505696 200.833608,15.035616 L201.89218,15.689376 L203.966213,11.908896 L202.999608,11.320416 C201.472583,10.392096 199.836348,9.918816 197.921339,9.918816" id="Fill-107" fill="#1F325D" fill-rule="nonzero"></path>
            <path d="M214.972291,9.747744 C212.539971,9.785184 210.387383,10.527264 208.72624,11.850144 L208.72624,10.128864 L204.331971,10.128864 L204.331971,33.437664 L208.766476,33.437664 L208.766476,20.597664 C208.766476,16.838304 211.295551,14.186784 215.013484,14.151264 C218.982408,14.151264 221.167568,16.305504 221.167568,20.217504 L221.167568,33.437664 L225.604946,33.437664 L225.604946,20.173344 C225.604946,13.841184 221.436761,9.747744 214.972291,9.747744" id="Fill-108" fill="#1F325D" fill-rule="nonzero"></path>
            <path d="M230.904318,0.666144 C229.27862,0.666144 228.051444,1.885344 228.051444,3.502944 C228.051444,5.121504 229.27862,6.340704 230.904318,6.340704 C232.531931,6.340704 233.755276,5.121504 233.755276,3.502944 C233.755276,1.885344 232.531931,0.666144 230.904318,0.666144" id="Fill-109" fill="#1F325D" fill-rule="nonzero"></path>
            <polygon id="Fill-110" fill="#1F325D" fill-rule="nonzero" points="228.644723 33.43776 233.080185 33.43776 233.080185 10.04544 228.644723 10.04544"></polygon>
            <path d="M253.474018,33.438816 L257.911397,33.438816 L257.911397,20.174496 C257.911397,13.841376 253.74417,9.748896 247.278741,9.748896 C244.846422,9.784416 242.693834,10.525536 241.032691,11.850336 L241.032691,10.130016 L236.63938,10.130016 L236.63938,33.438816 L241.073884,33.438816 L241.073884,20.596896 C241.073884,16.837536 243.602002,14.187936 247.318976,14.151456 C251.288859,14.151456 253.474018,16.305696 253.474018,20.217696 L253.474018,33.438816 Z" id="Fill-111" fill="#1F325D" fill-rule="nonzero"></path>
            <path d="M270.97503,28.016832 C266.667938,28.016832 264.416677,24.560832 264.416677,21.147072 C264.416677,16.795392 266.86624,14.194752 270.97503,14.194752 C275.011013,14.194752 277.619602,16.924992 277.619602,21.147072 C277.619602,24.871872 274.577047,28.016832 270.97503,28.016832 M285.346694,44.091072 C285.346694,43.605312 285.313165,43.054272 285.254728,42.472512 C285.250896,42.460032 285.250896,42.451392 285.250896,42.440832 C284.910812,39.048192 283.363669,34.217472 277.712526,29.912832 C280.350812,27.877632 282.011955,24.594432 282.011955,21.147072 C282.011955,18.289152 281.304963,16.001472 279.802845,14.032512 L281.941064,11.532672 L278.807501,8.788032 L276.664492,11.291712 C274.945871,10.315392 272.887165,9.748992 270.97503,9.748992 C264.50098,9.748992 259.979299,14.436672 259.979299,21.147072 C259.979299,27.704832 264.6054,32.460672 270.97503,32.460672 C271.114896,32.460672 271.762492,32.468352 272.632341,32.348352 C272.810526,32.323392 272.997333,32.292672 273.197551,32.256192 C274.075064,32.091072 277.335081,34.318272 279.65819,37.822272 C280.764661,39.714432 281.432375,41.923392 281.432375,44.162112 C281.432375,50.783232 276.057131,56.169792 269.446089,56.169792 C262.839837,56.169792 257.872694,50.786112 257.872694,44.164992 C257.872694,42.442752 257.872694,38.154432 257.847787,36.627072 L253.466929,36.627072 C253.466929,38.664192 253.553148,42.364992 253.553148,44.162112 C253.553148,52.944192 260.684375,60.091392 269.446089,60.091392 C278.214509,60.091392 285.346694,52.944192 285.346694,44.162112 C285.346694,44.150592 285.342862,44.139072 285.342862,44.127552 C285.342862,44.116992 285.346694,44.102592 285.346694,44.091072" id="Fill-112" fill="#1F325D" fill-rule="nonzero"></path>
        </g>
    </g>
</svg>